<svg transform="scale(1)" version="1.1" id="M2cGGNXEz3" xmlns="http://www.w3.org/2000/svg" xmlns:xlink="http://www.w3.org/1999/xlink" x="0px" y="0px" viewBox="0 0 500 500" xml:space="preserve" class="pbimage_pbimage__wrapper__image__0LEis false"><title>Bug Fixing 2</title><style type="text/css"> .st0{fill:#FFFFFF;} .st1{fill:#231F20;} .st2{fill:#D1D3D4;} .st3{fill:#68E1FD;} .st4{fill:none;}
 .st3{fill:#68E1FD;}
 .st2{fill:#D1D3D4;}
 .st1{fill:#231F20;}
 .st0{fill:#FFFFFF;}</style><g id="computer"><path class="st0" d="M191.9,392.5h133c10.6,0,19.5-16.5,19.9-36.7c0.4-17.7,0.1-65.9,0-73.8h-95.7c-0.1,7.6-0.4,52.6-0.4,70.3
		s-4.8,26.5-14.8,26.5h-30.6c-3.8,0-7.3,2.4-8.6,6L191.9,392.5L191.9,392.5z" fill="#FFFFFF"></path><path class="st1" d="M324.9,393.2h-133c-0.2,0-0.5-0.1-0.6-0.3c-0.1-0.2-0.2-0.5-0.1-0.7l2.8-7.7c1.4-3.9,5.1-6.5,9.3-6.5H234
		c9.4,0,14-8.4,14-25.7c0-17.6,0.3-62.5,0.4-70.3c0-0.4,0.3-0.7,0.8-0.7h95.8c0.4,0,0.7,0.3,0.8,0.7c0.1,8.7,0.4,56.3,0,73.9
		C345.2,376.5,335.9,393.2,324.9,393.2z M192.9,391.8h132c10.2,0,18.8-16.1,19.2-36c0.3-17.1,0.1-62.7,0-73.1h-94.3
		c-0.1,9.6-0.4,52.5-0.4,69.6c0,18.3-5.1,27.2-15.5,27.2h-30.6c-3.5,0-6.7,2.2-7.9,5.5L192.9,391.8z" fill="#231F20"></path><path class="st1" d="M279.5,392.5h45.6c10.6,0,19.5-16.5,20-36.7c0.4-17.7,0.1-65.9,0-73.8h-8.3c-0.1,7.6-0.4,52.6-0.4,70.3
		s-4.8,26.5-14.8,26.5h-30.6c-3.8,0-7.3,2.4-8.6,6L279.5,392.5L279.5,392.5z" fill="#231F20"></path><path class="st1" d="M325.1,393.2h-45.6c-0.4,0-0.7-0.3-0.7-0.8c0-0.1,0-0.2,0-0.2l2.8-7.7c1.4-3.9,5.1-6.5,9.3-6.5h30.6
		c9.4,0,14-8.4,14-25.7c0-18,0.3-63.6,0.4-70.3c0-0.4,0.3-0.7,0.8-0.7h8.3c0.4,0,0.7,0.3,0.8,0.7c0.1,8.7,0.4,56.3,0,73.9
		C345.3,376.5,336,393.2,325.1,393.2z M280.6,391.8h44.5c10.2,0,18.8-16.1,19.2-36c0.3-17.1,0.1-62.7,0-73.1h-6.8
		c-0.1,8.8-0.4,52.2-0.4,69.6c0,18.3-5.1,27.2-15.5,27.2h-30.6c-3.5,0-6.7,2.2-7.9,5.5L280.6,391.8z" fill="#231F20"></path><path class="st1" d="M170.3,111.7l-18.5,211.2c-0.9,10.4,6.5,18.9,16.5,18.9h251.8c10,0,18.9-8.5,19.8-18.9l18.5-211.2
		c0.9-10.4-6.5-18.9-16.5-18.9H190.2C180.1,92.8,171.2,101.2,170.3,111.7z" fill="#231F20"></path><path class="st1" d="M420.2,342.5H168.4c-4.8,0-9.4-2-12.7-5.5c-3.5-3.9-5.2-9-4.6-14.2l18.5-211.2c0.9-10.8,10.2-19.6,20.6-19.6
		H442c4.8,0,9.4,2,12.7,5.5c3.5,3.9,5.1,9,4.6,14.2l-18.5,211.2C439.8,333.7,430.6,342.5,420.2,342.5z M190.2,93.5
		c-9.6,0-18.2,8.2-19.1,18.2l0,0l-18.5,211.2c-0.5,4.8,1,9.5,4.2,13.1c3,3.2,7.2,5,11.6,5h251.8c9.6,0,18.2-8.2,19.1-18.2
		l18.5-211.2c0.5-4.8-1-9.5-4.2-13.1c-3-3.2-7.2-5-11.6-5L190.2,93.5z" fill="#231F20"></path><path class="st0" d="M169.5,110.8l-17.6,201.6c-0.9,9.9,6.2,18,15.8,18h240.4c9.6,0,18.1-8.1,18.9-18l17.6-201.6
		c0.9-10-6.2-18-15.8-18H188.4C178.9,92.8,170.4,100.8,169.5,110.8z" fill="#FFFFFF"></path><path class="st1" d="M408.1,331.2H167.6c-4.6,0-9-1.9-12.1-5.2c-3.3-3.7-4.9-8.6-4.4-13.6l17.6-201.6l0,0
		c0.9-10.3,9.7-18.7,19.7-18.7h240.4c4.6,0,9,1.9,12.1,5.3c3.3,3.7,4.9,8.6,4.4,13.6l-17.7,201.6C426.8,322.9,418,331.2,408.1,331.2
		z M170.2,110.9l-17.6,201.6c-0.5,4.5,1,9.1,4,12.5c2.8,3.1,6.8,4.8,11,4.8h240.5c9.2,0,17.3-7.8,18.2-17.4l17.6-201.6
		c0.5-4.5-1-9.1-4-12.4c-2.8-3.1-6.8-4.8-11-4.8H188.4C179.2,93.5,171.1,101.3,170.2,110.9z" fill="#231F20"></path><path class="st0" d="M154.8,278.6l-3,33.9c-0.9,9.9,6.2,18,15.8,18h240.5c9.6,0,18.1-8.1,18.9-18l3-33.9L154.8,278.6z" fill="#FFFFFF"></path><path class="st1" d="M408.1,331.2H167.6c-4.6,0-9-1.9-12.1-5.2c-3.3-3.7-4.9-8.6-4.4-13.6l3-33.9c0-0.4,0.4-0.7,0.7-0.7H430
		c0.4,0,0.7,0.3,0.8,0.7c0,0,0,0.1,0,0.1l-3,33.9C426.8,322.9,418,331.2,408.1,331.2z M155.5,279.4l-2.9,33.2c-0.5,4.5,1,9.1,4,12.5
		c2.8,3.1,6.8,4.8,11,4.8h240.5c9.2,0,17.3-7.8,18.2-17.4l2.9-33L155.5,279.4z" fill="#231F20"></path><path class="st1" d="M291.1,294c-5.6,0-10.6,4.8-11.1,10.7c-0.3,2.8,0.6,5.5,2.4,7.6c1.7,1.9,4.1,2.9,6.6,2.9
		c5.6,0,10.6-4.8,11.1-10.7c0.3-2.8-0.6-5.5-2.5-7.6C296.1,295,293.7,294,291.1,294L291.1,294z" fill="#231F20"></path><path class="st2" d="M289.1,315.9c-2.7,0-5.3-1.1-7.2-3.1c-2-2.2-3-5.2-2.6-8.2c0.6-6.3,5.9-11.4,11.9-11.4h0.2
		c2.7,0,5.2,1.2,7,3.1c2,2.2,3,5.2,2.6,8.2C300.4,310.8,295.1,315.9,289.1,315.9z M291,294.7c-5.2,0.1-9.8,4.5-10.2,10
		c-0.3,2.5,0.5,5.1,2.2,7c1.6,1.7,3.8,2.7,6.1,2.6c5.2,0,9.9-4.5,10.4-10c0.3-2.5-0.5-5.1-2.2-7c-1.6-1.7-3.8-2.7-6.1-2.6H291z" fill="#D1D3D4"></path><g id="data"><path class="st1" d="M419.4,131.4h-72.6c-1.9-0.1-3.3-1.7-3.2-3.5c0.1-1.7,1.5-3.1,3.2-3.2h72.6c1.9-0.1,3.4,1.3,3.5,3.2
			c0.1,1.9-1.3,3.4-3.2,3.5C419.6,131.4,419.5,131.4,419.4,131.4z"></path><path class="st1" d="M419.4,132.2h-72.6c-2.3-0.1-4-2-3.9-4.3c0.1-2.1,1.8-3.8,3.9-3.9h72.6c2.3-0.1,4.2,1.6,4.3,3.9
			c0.1,2.3-1.6,4.2-3.9,4.3C419.6,132.2,419.5,132.2,419.4,132.2z M346.7,125.5c-1.4,0.1-2.5,1.3-2.4,2.8c0.1,1.3,1.1,2.4,2.4,2.4
			h72.6c1.4,0.1,2.7-1,2.8-2.4c0.1-1.4-1-2.7-2.4-2.8c-0.1,0-0.2,0-0.3,0H346.7z"></path><path class="st3" d="M386.3,148.1h-40.6c-1.9,0.1-3.4-1.3-3.5-3.2s1.3-3.4,3.2-3.5c0.1,0,0.2,0,0.4,0h40.6
			c1.9-0.1,3.4,1.3,3.5,3.2s-1.3,3.4-3.2,3.5C386.5,148.1,386.4,148.1,386.3,148.1z"></path><path class="st1" d="M386.3,148.9h-40.6c-2.3,0.1-4.2-1.6-4.3-3.9c-0.1-2.3,1.6-4.2,3.9-4.3c0.1,0,0.3,0,0.4,0h40.6
			c2.3-0.1,4.2,1.6,4.3,3.9c0.1,2.3-1.6,4.2-3.9,4.3C386.5,148.9,386.4,148.9,386.3,148.9z M345.6,142.2c-1.4-0.1-2.7,1-2.8,2.4
			c-0.1,1.4,1,2.7,2.4,2.8c0.1,0,0.2,0,0.3,0h40.6c1.4,0.1,2.7-1,2.8-2.4c0.1-1.4-1-2.7-2.4-2.8c-0.1,0-0.2,0-0.3,0H345.6z"></path><path class="st1" d="M374.7,164.9h-30.1c-1.9-0.1-3.3-1.7-3.2-3.5c0.1-1.7,1.5-3.1,3.2-3.2h30.1c1.9,0.1,3.3,1.7,3.2,3.5
			C377.8,163.4,376.4,164.8,374.7,164.9z"></path><path class="st1" d="M374.7,165.6h-30.1c-2.3-0.1-4-2-3.9-4.3c0.1-2.1,1.8-3.8,3.9-3.9h30.1c2.3,0.1,4,2,3.9,4.3
			C378.5,163.8,376.8,165.5,374.7,165.6z M344.5,158.9c-1.4,0.1-2.5,1.3-2.4,2.8c0.1,1.3,1.1,2.4,2.4,2.4h30.1
			c1.4-0.1,2.5-1.3,2.4-2.8c-0.1-1.3-1.1-2.4-2.4-2.4H344.5z"></path><path class="st0" d="M215.7,259.7h-25c-0.3,0-0.6-0.1-0.8-0.4c-0.2-0.2-0.3-0.5-0.3-0.8l1.3-19.8c0.1-0.6,0.5-1,1.1-1h25
			c0.3,0,0.6,0.1,0.8,0.4c0.2,0.2,0.3,0.5,0.3,0.8l-1.3,19.8C216.7,259.3,216.2,259.7,215.7,259.7z"></path><path class="st1" d="M215.7,260.5h-25c-1,0-1.9-0.8-1.9-1.9c0,0,0-0.1,0-0.1l1.3-19.8c0.1-1,0.9-1.7,1.9-1.7h25
			c1,0,1.9,0.8,1.9,1.8c0,0.1,0,0.1,0,0.2l-1.3,19.8C217.5,259.8,216.6,260.5,215.7,260.5z M192,238.5c-0.2,0-0.4,0.1-0.4,0.3
			l-1.3,19.8c0,0.1,0,0.2,0.1,0.3c0.1,0.1,0.2,0.1,0.3,0.1h25c0.2,0,0.3-0.1,0.4-0.3l1.3-19.8c0-0.1,0-0.2-0.1-0.3
			c-0.1-0.1-0.2-0.1-0.3-0.1L192,238.5z"></path><path class="st1" d="M319.5,245.3h-78.8c-1.9,0-3.4-1.5-3.4-3.3c0-1.9,1.5-3.4,3.3-3.4c0,0,0,0,0,0h78.8c1.9,0,3.4,1.5,3.4,3.3
			C322.8,243.8,321.3,245.3,319.5,245.3C319.5,245.3,319.5,245.3,319.5,245.3z"></path><path class="st1" d="M319.5,246.1h-78.8c-2.3,0-4.1-1.8-4.1-4.1c0-2.3,1.8-4.1,4.1-4.1c0,0,0,0,0,0h78.8c2.3,0,4.1,1.8,4.1,4.1
			C323.6,244.2,321.7,246,319.5,246.1C319.5,246.1,319.5,246.1,319.5,246.1z M240.7,239.4c-1.4,0-2.6,1.2-2.6,2.6
			c0,1.4,1.2,2.6,2.6,2.6c0,0,0,0,0,0h78.8c1.4,0,2.6-1.2,2.6-2.6c0-1.4-1.2-2.6-2.6-2.6c0,0,0,0,0,0H240.7z"></path><path class="st3" d="M302.2,256.6h-62.2c-1.9,0.1-3.4-1.3-3.5-3.2s1.3-3.4,3.2-3.5c0.1,0,0.2,0,0.4,0h62.2
			c1.9,0.1,3.3,1.7,3.2,3.5C305.3,255.1,303.9,256.5,302.2,256.6z"></path><path class="st1" d="M302.2,257.4h-62.3c-2.3-0.1-4-2-3.9-4.3c0.1-2.1,1.8-3.8,3.9-3.9h62.3c2.3,0.1,4,2,3.9,4.3
			C306,255.6,304.3,257.3,302.2,257.4z M239.9,250.6c-1.4,0.1-2.5,1.3-2.4,2.8c0.1,1.3,1.1,2.4,2.4,2.4h62.3
			c1.4-0.1,2.5-1.3,2.4-2.8c-0.1-1.3-1.1-2.4-2.4-2.4H239.9z"></path><path class="st1" d="M201.2,255.4c-0.3,0-0.5,0-0.8-0.1c-1-0.2-1.9-0.9-2.3-1.9l-2.1-4.6c-0.7-1.7,0.2-3.7,1.9-4.4
			c1.6-0.6,3.5,0.1,4.2,1.6l0.2,0.6l5.1-4.1c1.5-1.1,3.6-0.8,4.7,0.7c1.1,1.4,0.9,3.4-0.5,4.5l-8.5,6.9
			C202.8,255.1,202,255.3,201.2,255.4L201.2,255.4z"></path><path class="st3" d="M350.3,225.6c2.1-8.7,9.1-15.3,17.9-16.8l0.8-12.7c-6.9,0.7-13.5,3.5-18.9,8l0,0c-1.1,0.9-2.2,2-3.2,3.1
			c-4.8,5.1-8.1,11.5-9.2,18.4L350.3,225.6z M349.4,203.3L349.4,203.3z"></path><path class="st1" d="M337.7,226.3c-0.2,0-0.4-0.1-0.6-0.3c-0.1-0.2-0.2-0.4-0.2-0.6c1.2-7.1,4.5-13.6,9.4-18.8
			c0.9-0.9,1.8-1.8,2.8-2.7c-0.3-0.1-0.5-0.4-0.5-0.7c0-0.4,0.3-0.7,0.7-0.7c0,0,0,0,0,0l0,0c0.4,0,0.7,0.3,0.7,0.6
			c5.4-4.4,11.9-7.1,18.8-7.8c0.2,0,0.4,0.1,0.6,0.2c0.2,0.2,0.2,0.4,0.2,0.6l-0.8,12.7c0,0.4-0.3,0.6-0.6,0.7
			c-3.4,0.6-6.6,1.9-9.3,4c-4,3-6.8,7.3-8,12.2c-0.1,0.3-0.4,0.6-0.7,0.6L337.7,226.3L337.7,226.3z M350.3,225.6L350.3,225.6z
			 M368.2,197c-6.5,0.9-12.6,3.6-17.6,7.8c-1.1,0.9-2.2,1.9-3.2,3c-4.5,4.7-7.6,10.7-8.9,17.1h11.1c2.3-8.5,9.2-15,17.8-16.7
			L368.2,197z"></path><path class="st1" d="M337.1,232.6c0.2,6.6,2.6,12.9,6.9,18c0.9,1.1,1.8,2.1,2.8,3c5.2,4.8,11.9,7.7,19,8.1c1.4,0.1,2.9,0.1,4.3,0
			c7.4-0.5,14.5-3.4,20.1-8.1c1.1-0.9,2.2-1.9,3.2-3c5.2-5.4,8.5-12.2,9.5-19.6c0.1-0.7,0.2-1.4,0.2-2.2s0.1-1.4,0.1-2.1l0,0
			c0.1-6.7-2.1-13.2-6.1-18.6l-9.6,9c1.8,2.9,2.9,6.1,3,9.5c0,0.8,0,1.6,0,2.3c-0.1,0.8-0.1,1.6-0.3,2.4
			c-2,11.3-12.3,19.1-23.7,17.8c-3.7-0.4-7.2-1.9-10.1-4.3c-1.2-1-2.2-2.1-3.1-3.3c-2-2.7-3.2-5.9-3.5-9.3h-12.7V232.6z"></path><path class="st1" d="M368,262.6c-0.7,0-1.5,0-2.2-0.1c-7.3-0.4-14.1-3.3-19.5-8.3c-1-1-2-2-2.9-3.1c-4.4-5.2-6.8-11.7-7-18.4v-0.4
			c0-0.4,0.3-0.7,0.7-0.8c0,0,0,0,0,0h12.7c0.4,0,0.7,0.3,0.8,0.7c0.3,3.2,1.5,6.3,3.4,8.9c0.9,1.2,1.9,2.3,3,3.2
			c2.7,2.3,6.1,3.7,9.7,4.1c1.5,0.2,3,0.2,4.5,0c9.2-1.2,16.6-8.1,18.4-17.2c0.1-0.7,0.2-1.5,0.3-2.3c0-0.7,0-1.4,0-2.3
			c-0.2-3.3-1.2-6.4-2.9-9.1c-0.2-0.3-0.2-0.7,0.1-1l9.6-9c0.2-0.1,0.4-0.2,0.6-0.2c0.2,0,0.4,0.1,0.5,0.3c4.1,5.5,6.3,12.2,6.2,19
			c0,0.6,0,1.3-0.1,2.2c0,0.7-0.1,1.5-0.2,2.2c-1,7.5-4.4,14.5-9.6,20c-1,1.1-2.1,2.1-3.3,3.1c-5.8,4.9-13,7.8-20.6,8.3
			C369.4,262.6,368.7,262.6,368,262.6z M337.9,233c0.2,6.3,2.6,12.4,6.7,17.2c0.8,1,1.8,2,2.8,2.9c5.1,4.7,11.6,7.5,18.5,7.9
			c1.4,0.1,2.8,0.1,4.2,0c7.3-0.5,14.2-3.3,19.7-8c1.1-0.9,2.2-1.9,3.2-3c5-5.3,8.3-12,9.2-19.2c0.1-0.6,0.2-1.3,0.2-2.1
			s0.1-1.5,0.1-2.1c0.1-6.3-1.8-12.4-5.4-17.5l-8.5,8c1.7,2.8,2.7,6.1,2.8,9.4c0,0.8,0,1.6,0,2.4c-0.1,0.8-0.1,1.6-0.3,2.4
			c-1.9,9.8-9.8,17.2-19.7,18.5c-1.6,0.2-3.3,0.2-4.9,0c-3.9-0.4-7.5-1.9-10.5-4.4c-1.2-1-2.3-2.2-3.3-3.5c-1.9-2.7-3.2-5.7-3.6-9
			L337.9,233z"></path><path class="st0" d="M394.4,203.3c-5.4-5-12.3-8-19.7-8.4l-1,14.9c3.5,0.4,6.8,1.8,9.5,4.1L394.4,203.3L394.4,203.3z"></path><path class="st1" d="M383.2,214.6c-0.2,0-0.4-0.1-0.5-0.2c-2.6-2.2-5.7-3.5-9.1-3.9c-0.4,0-0.7-0.4-0.7-0.8l1-14.9
			c0-0.4,0.4-0.7,0.8-0.7c0,0,0,0,0,0c7.5,0.4,14.6,3.5,20.1,8.6c0.2,0.1,0.2,0.3,0.2,0.6l0,0c0,0.2-0.1,0.4-0.2,0.6l-11.2,10.5
			C383.6,214.5,383.4,214.6,383.2,214.6z M374.5,209.1c3.2,0.5,6.1,1.8,8.6,3.7l10.1-9.5c-5-4.4-11.3-7.1-17.9-7.6L374.5,209.1z"></path></g><path class="st1" d="M489.1,393.2H22c-0.4,0-0.8-0.3-0.8-0.8s0.3-0.8,0.8-0.8h467.1c0.4,0,0.8,0.3,0.8,0.8S489.5,393.2,489.1,393.2
		z" fill="#231F20"></path><path class="st1" d="M290.9,379.5h-87.6c-0.4,0-0.8-0.3-0.8-0.8s0.3-0.8,0.8-0.8h87.6c0.4,0,0.8,0.3,0.8,0.8
		S291.3,379.5,290.9,379.5z" fill="#231F20"></path><path class="st0" d="M282.8,140c-0.5,2.2-2.5,4.1-4.7,3.9c-1.3-0.2-2.5-0.9-3.3-2c-2.2-2.8-4-10,1.2-10.8
		C280.3,130.3,283.6,136.2,282.8,140L282.8,140z" fill="#FFFFFF"></path><path class="st1" d="M278.4,144.6H278c-1.5-0.2-2.9-1-3.9-2.2c-1.6-2-3.1-6.3-2-9.2c0.6-1.5,2-2.6,3.6-2.8c2-0.3,4,0.5,5.3,2
		c2,2.1,2.9,4.9,2.5,7.7c0,0,0,0.1,0,0.1C283,142.6,280.9,144.5,278.4,144.6z M276.6,131.8c-0.2,0-0.4,0-0.6,0.1
		c-1.1,0.1-2.1,0.8-2.5,1.9c-0.9,2.2,0.2,5.9,1.8,7.8c0.7,0.9,1.7,1.5,2.8,1.7c1.9,0,3.5-1.3,3.9-3.2c0,0,0-0.1,0-0.1
		c0.3-2.4-0.4-4.7-2.1-6.4C279.1,132.4,277.9,131.8,276.6,131.8z" fill="#231F20"></path><path class="st1" d="M269.9,167.7c-0.2,0-0.5-0.1-0.6-0.3l-8.2-11.4c-0.3-0.3-0.2-0.8,0.1-1.1s0.8-0.2,1.1,0.1c0,0,0,0,0,0.1
		l7.9,11.1l10.9-1.5c0.4-0.1,0.8,0.2,0.9,0.6c0.1,0.4-0.2,0.8-0.6,0.8c0,0,0,0,0,0L269.9,167.7L269.9,167.7z" fill="#231F20"></path><path class="st0" d="M252,153.6v23.2" fill="#FFFFFF"></path><path class="st1" d="M251.9,177.5L251.9,177.5c-0.4,0-0.8-0.3-0.8-0.8v-23.2c0-0.4,0.3-0.7,0.7-0.8c0,0,0,0,0,0l0,0
		c0.4,0,0.7,0.3,0.8,0.8v23.2C252.7,177.2,252.3,177.5,251.9,177.5z" fill="#231F20"></path><path class="st1" d="M218.6,172.6c-0.4,0-0.8-0.3-0.8-0.7s0.3-0.8,0.7-0.8l14-1.8c0.2,0,0.3-0.2,0.4-0.3l3.9-14.2
		c0.1-0.4,0.5-0.6,0.9-0.5c0,0,0,0,0,0c0.4,0.1,0.6,0.5,0.5,0.9c0,0,0,0,0,0l-3.9,14.3c-0.2,0.7-0.9,1.3-1.6,1.4L218.6,172.6
		L218.6,172.6z" fill="#231F20"></path><path class="st0" d="M257.2,125.6l3.1-13.8l11.1-3" fill="#FFFFFF"></path><path class="st1" d="M257.2,126.4H257c-0.4-0.1-0.7-0.5-0.6-0.9c0,0,0,0,0,0l3.1-13.7c0.1-0.3,0.3-0.5,0.5-0.6l11.1-3
		c0.4-0.1,0.8,0.1,0.9,0.5s-0.1,0.8-0.5,0.9l0,0l-10.7,2.9l-3,13.3C257.8,126.1,257.5,126.4,257.2,126.4z" fill="#231F20"></path><path class="st0" d="M248.9,131.1l-9.1-21.3" fill="#FFFFFF"></path><path class="st1" d="M248.9,131.9c-0.3,0-0.6-0.2-0.7-0.5l-9.1-21.3c-0.2-0.4,0-0.8,0.4-1c0,0,0,0,0,0c0.4-0.2,0.8,0,1,0.4
		c0,0,0,0,0,0l9.1,21.3c0.2,0.4,0,0.8-0.4,1c0,0,0,0,0,0C249.1,131.9,249,131.9,248.9,131.9z" fill="#231F20"></path><path class="st0" d="M235,135.5l-9.2-11.6c-0.3-0.4-0.8-0.5-1.2-0.4l-13.6,3.8" fill="#FFFFFF"></path><path class="st1" d="M235,136.2c-0.2,0-0.4-0.1-0.6-0.3l-9.2-11.6c-0.1-0.1-0.3-0.2-0.5-0.1l-13.5,3.8c-0.4,0.1-0.8-0.1-0.9-0.5
		c-0.1-0.4,0.1-0.8,0.5-0.9l13.6-3.8c0.7-0.2,1.5,0.1,2,0.7l9.2,11.6c0.3,0.3,0.2,0.8-0.1,1.1C235.4,136.2,235.2,136.2,235,136.2z" fill="#231F20"></path><ellipse class="st0" transform="matrix(0.9905 -0.1374 0.1374 0.9905 -17.051 36.0744)" cx="252.7" cy="141.5" rx="25.1" ry="16.4" fill="#FFFFFF"></ellipse><path class="st1" d="M249.8,158.9c-11.8,0-21.5-5.6-22.6-13.8c-1.3-9.4,9.1-18.6,23.2-20.5c6.3-1,12.8-0.2,18.7,2.4
		c5.4,2.5,8.6,6.4,9.3,11.1s-1.5,9.3-5.9,13.2c-4.9,4.1-10.9,6.6-17.3,7.4C253.3,158.8,251.5,158.9,249.8,158.9z M255.7,125.7
		c-1.7,0-3.4,0.1-5.1,0.4l0,0c-13.3,1.8-23.1,10.3-21.9,18.8s12.9,14,26.2,12.2c6.1-0.7,11.8-3.1,16.5-7c4.1-3.6,6-7.8,5.4-11.8
		s-3.6-7.6-8.5-9.9C264.4,126.5,260,125.6,255.7,125.7L255.7,125.7z M250.4,125.3L250.4,125.3z" fill="#231F20"></path><line class="st4" x1="262.2" y1="140.2" x2="227.9" y2="145"></line><path class="st1" d="M227.9,145.7c-0.4,0-0.7-0.3-0.7-0.6c-0.1-0.4,0.2-0.8,0.6-0.9l34.3-4.8c0.4-0.1,0.8,0.2,0.8,0.6c0,0,0,0,0,0
		c0.1,0.4-0.2,0.8-0.6,0.8c0,0,0,0,0,0l-34.3,4.8L227.9,145.7z" fill="#231F20"></path><line class="st4" x1="261" y1="125.5" x2="265.3" y2="154.9"></line><path class="st1" d="M265.3,155.7c-0.4,0-0.7-0.3-0.7-0.6l-4.2-29.4c-0.1-0.4,0.2-0.8,0.6-0.9c0.4-0.1,0.8,0.2,0.9,0.6l4.2,29.4
		C266.1,155.2,265.8,155.6,265.3,155.7L265.3,155.7z" fill="#231F20"></path><path class="st1" d="M295.8,152.8c-0.3,0-0.5-0.2-0.7-0.4c0-0.1-5.1-10.4-12.8-10c-0.4,0-0.8-0.3-0.8-0.7c0,0,0,0,0,0
		c0-0.4,0.3-0.8,0.7-0.8c0,0,0,0,0,0c8.6-0.3,13.9,10.4,14.1,10.9c0.2,0.4,0,0.8-0.3,1C296,152.8,295.9,152.8,295.8,152.8z" fill="#231F20"></path><path class="st1" d="M280.6,134c-0.4,0-0.8-0.3-0.8-0.7c0-0.3,0.2-0.7,0.5-0.8c6.5-2.1,9.9-11.6,10-11.7c0.1-0.4,0.6-0.6,0.9-0.5
		c0,0,0,0,0,0c0.4,0.1,0.6,0.6,0.5,0.9c0,0,0,0,0,0.1c-0.1,0.4-3.7,10.2-10.9,12.6C280.8,134,280.7,134,280.6,134z" fill="#231F20"></path><path class="st0" d="M452.3,139c-0.2,0-0.4-0.1-0.5-0.2l-5.8-5.3c-0.3-0.2-0.4-0.7-0.1-1.1c0.2-0.3,0.7-0.4,1.1-0.1
		c0,0,0.1,0.1,0.1,0.1l5.8,5.3c0.3,0.3,0.3,0.7,0,1.1C452.7,138.9,452.5,139,452.3,139z" fill="#FFFFFF"></path><path class="st0" d="M451.5,147.7c-0.2,0-0.4-0.1-0.5-0.2l-5.8-5.3c-0.3-0.3-0.3-0.8-0.1-1.1c0,0,0,0,0,0c0.3-0.3,0.8-0.3,1.1-0.1
		l5.8,5.3c0.3,0.3,0.3,0.8,0,1.1C451.9,147.6,451.7,147.7,451.5,147.7L451.5,147.7z" fill="#FFFFFF"></path><path class="st0" d="M450.7,156.3c-0.2,0-0.4-0.1-0.5-0.2l-5.8-5.3c-0.3-0.2-0.4-0.7-0.1-1.1c0.2-0.3,0.7-0.4,1.1-0.1
		c0,0,0.1,0.1,0.1,0.1l5.8,5.3c0.3,0.3,0.3,0.8,0,1.1C451.1,156.2,450.9,156.3,450.7,156.3z" fill="#FFFFFF"></path><path class="st0" d="M450,165c-0.2,0-0.4-0.1-0.5-0.2l-5.8-5.3c-0.3-0.3-0.3-0.8-0.1-1.1c0,0,0,0,0,0c0.3-0.3,0.8-0.3,1.1,0
		l5.8,5.3c0.3,0.3,0.3,0.8,0,1.1C450.4,164.9,450.2,165,450,165z" fill="#FFFFFF"></path><path class="st0" d="M449.2,173.6c-0.2,0-0.4-0.1-0.5-0.2l-5.8-5.3c-0.3-0.2-0.4-0.7-0.1-1.1c0.2-0.3,0.7-0.4,1.1-0.1
		c0,0,0.1,0.1,0.1,0.1l5.8,5.3c0.3,0.3,0.3,0.8,0,1.1C449.6,173.6,449.4,173.7,449.2,173.6L449.2,173.6z" fill="#FFFFFF"></path><path class="st0" d="M448.4,182.3c-0.2,0-0.4-0.1-0.5-0.2l-5.8-5.3c-0.3-0.2-0.4-0.7-0.1-1.1c0.2-0.3,0.7-0.4,1.1-0.1
		c0,0,0.1,0.1,0.1,0.1l5.8,5.3c0.3,0.3,0.3,0.8,0,1.1C448.8,182.2,448.6,182.3,448.4,182.3z" fill="#FFFFFF"></path><path class="st0" d="M447.6,191c-0.2,0-0.4-0.1-0.5-0.2l-5.8-5.3c-0.3-0.3-0.3-0.8-0.1-1.1c0,0,0,0,0,0c0.3-0.3,0.8-0.3,1.1,0
		l5.8,5.3c0.3,0.3,0.3,0.8,0,1.1C448,191,447.8,191,447.6,191L447.6,191z" fill="#FFFFFF"></path></g><g id="character"><path class="st1" d="M174.7,226.7c-0.2,0-0.4-0.1-0.5-0.2c-0.2-0.2-0.3-0.4-0.2-0.7l2.9-13c0.1-0.3,0.2-0.5,0.5-0.6l13.4-4.3
		c0.3-0.1,0.6,0,0.8,0.3c0.1,0,0.2-0.1,0.4-0.1c0.4,0,0.7,0.4,0.7,0.8c-0.3,3-1.6,12.9-4.3,13.9c-2.4,0.9-13,3.7-13.4,3.8
		L174.7,226.7z M178.2,213.5l-2.5,11.4c2.9-0.8,10.2-2.8,12.1-3.4c1.1-0.4,2.6-6.4,3.2-12L178.2,213.5z"></path><path class="st3" d="M148.1,243.7c7.1-1.8,29-15.9,29-15.9l0.5-14.9l-27.4,12.2c0,0-19.7-12.1-35.2-14l-2,16.4
		C113,227.6,134.6,246,148.1,243.7z"></path><polygon class="st0" points="149.3,402.2 151.5,416 162.6,414.8 161.8,399.5 	"></polygon><path class="st1" d="M151.5,416.7c-0.4,0-0.7-0.3-0.7-0.6l-2.1-13.7c-0.1-0.4,0.2-0.8,0.6-0.8l12.5-2.8c0.2-0.1,0.4,0,0.6,0.1
		c0.2,0.1,0.3,0.3,0.3,0.6l0.7,15.4c0,0.4-0.3,0.7-0.7,0.8L151.5,416.7L151.5,416.7z M150.2,402.8l1.9,12.3l9.7-1l-0.6-13.8
		L150.2,402.8z"></path><polygon class="st0" points="48.5,384.1 34.9,395.3 40.4,405.3 54,397.5 	"></polygon><path class="st1" d="M40.4,406.1c-0.1,0-0.1,0-0.2,0c-0.2,0-0.4-0.2-0.5-0.4l-5.5-10c-0.2-0.3-0.1-0.7,0.2-0.9L48,383.5
		c0.2-0.2,0.4-0.2,0.7-0.1c0.2,0.1,0.4,0.2,0.5,0.4l5.5,13.4c0.1,0.3,0,0.7-0.3,0.9L40.8,406C40.6,406.1,40.5,406.1,40.4,406.1z
		 M35.8,395.5l4.8,8.8l12.3-7.1l-4.9-11.8L35.8,395.5z"></path><path class="st0" d="M65.5,293.4c0,0,1.2,17.8,3.4,33s5.6,31.6,5.6,31.6L40,386.4l9.9,16.8c0,0,43.2-25.8,50.1-36.6
		c2.3-3.7,2.2-10.5,2.7-17.4c0.9-13.2,0.2-31,0.2-31l5.1,7.1l23.4,28.5l14.2,52.6l20.6-1.2c0,0-7.6-51.4-11.6-65.5
		c-3.4-12-34.2-51.2-34.2-51.2l-41.5,2.1L65.5,293.4z"></path><path class="st1" d="M145.5,407.2c-0.3,0-0.6-0.2-0.7-0.5l-14.1-52.5l-23.3-28.4l-3.7-5.1c0.1,5.4,0.4,18.4-0.3,28.7
		c-0.1,1.2-0.1,2.3-0.2,3.5c-0.3,5.6-0.6,11-2.6,14.2c-6.8,10.8-48.6,35.8-50.3,36.8c-0.2,0.1-0.4,0.1-0.6,0.1
		c-0.2,0-0.4-0.2-0.5-0.4l-9.9-16.8c-0.2-0.3-0.1-0.8,0.2-1l34.1-28.2c-0.6-2.7-3.5-17.5-5.5-31.2c-2.2-15-3.4-32.8-3.4-33
		c0-0.4,0.2-0.7,0.6-0.8l13.3-2.6h0.1l41.5-2.1c0.2,0,0.5,0.1,0.6,0.3c1.3,1.6,30.9,39.4,34.4,51.4c4,13.9,11.5,65.1,11.6,65.6
		c0,0.2,0,0.4-0.2,0.6c-0.1,0.2-0.3,0.3-0.5,0.3L145.5,407.2L145.5,407.2z M102.8,317.5c0.2,0,0.5,0.1,0.6,0.3l5.1,7.1l23.4,28.4
		c0.1,0.1,0.1,0.2,0.1,0.3l14,52.1l19.2-1.1c-1-6.6-7.7-51.7-11.5-64.6c-3.2-11.2-31-46.9-33.9-50.6l-41,2L66.3,294
		c0.2,3.4,1.4,18.9,3.3,32.2c2.2,15,5.5,31.4,5.6,31.5c0.1,0.3,0,0.6-0.3,0.7L41,386.6l9.2,15.6c5.4-3.3,43-26.1,49.2-36
		c1.8-2.9,2.1-8,2.4-13.5c0.1-1.2,0.1-2.3,0.2-3.5c0.9-13.1,0.2-30.8,0.2-31c0-0.3,0.2-0.6,0.5-0.7
		C102.7,317.5,102.8,317.5,102.8,317.5z"></path><path class="st3" d="M76.2,214.4c14.5-8.1,42.6-6.2,51.5,2.3c2,2.4-6,0.3-5.4,10.6c1.5,25.7,3.2,66.9,2.3,65.7l-59.8,5.3
		c-1-9.3-1.3-18.6-0.7-27.9C64.4,266.9,67.9,219.1,76.2,214.4z"></path><polygon class="st1" points="106.4,220.4 100.8,219.6 104.4,226.9 97.3,270.4 106.9,280.1 114,265.7 107.3,226.8 110.3,219.9 	"></polygon><path class="st1" d="M106.9,280.9c-0.2,0-0.4-0.1-0.5-0.2l-9.6-9.7c-0.2-0.2-0.2-0.4-0.2-0.6l7.1-43.2l-3.5-7.1
		c-0.1-0.3-0.1-0.5,0.1-0.8c0.2-0.2,0.4-0.4,0.7-0.3l5.4,0.7l3.8-0.5c0.4-0.1,0.8,0.2,0.8,0.6c0,0.1,0,0.3-0.1,0.4l-3,6.8l6.7,38.7
		c0,0.2,0,0.3-0.1,0.5l-7.1,14.4C107.4,280.7,107.2,280.8,106.9,280.9L106.9,280.9z M98.1,270.1l8.6,8.7l6.5-13.2l-6.7-38.6
		c0-0.1,0-0.3,0-0.4l2.5-5.8l-2.6,0.4h-0.2l-4.2-0.6l3,6c0.1,0.1,0.1,0.3,0.1,0.4L98.1,270.1z"></path><path class="st1" d="M122.8,183.7c-0.6-3.3-1.8-6.3-4.8-8.5c-5.7-4.2-18-5.3-22.2,1.7c-1.4,0.2-2.8,0.8-3.8,1.7
		c-1.3,1.3-2.2,3-2.7,4.8c-2.1,6.8-0.4,13.2,2.8,19.5c1.1,2.1,3.6,2.3,5.1,2.1c4.4,3.3,10.4,3.9,15.3,1.5c3.1-1.4,5.5-1.8,7.5-4.4
		c2.4-3.2,3.5-8.9,3.3-12.7C123.4,187.5,123.2,185.6,122.8,183.7L122.8,183.7z"></path><path class="st0" d="M112.1,207.8l-0.4,10c0,0-2,5.4-8.3,3.1c-3.7-1.3-6.3-4.7-6.8-8.6l0.9-18c0,0,5.9,0.1,4.8-10.9
		c5.1,2.1,10.6,3,16.1,2.8c0,0,3.2,13.1,1.9,18C118.8,208.1,112.1,207.7,112.1,207.8L112.1,207.8z"></path><path class="st1" d="M106.2,222.3c-1.1,0-2.2-0.2-3.2-0.6c-4-1.4-6.8-5-7.3-9.2l0.9-18c0-0.4,0.4-0.7,0.8-0.7
		c0.9-0.1,1.8-0.5,2.4-1.3c1-1.1,2.2-3.6,1.6-8.8c0-0.3,0.1-0.5,0.3-0.7c0.2-0.2,0.5-0.2,0.8-0.1c4.8,1.9,10,2.9,15.1,2.8h0.7
		c0.3,0,0.6,0.2,0.7,0.6c0.1,0.6,3.3,13.3,1.9,18.4c-1.4,3.5-6.3,3.9-8.2,4l-0.4,9.3c0,0.1,0,0.2,0,0.2
		C111.3,220.7,108.9,222.3,106.2,222.3z M98.1,195.2l-0.9,17.3c0.5,3.6,2.9,6.6,6.3,7.8c5.1,1.9,7-1.9,7.3-2.6l0.4-9.9
		c0-0.4,0.3-0.7,0.7-0.7h0.2c1,0,6.1,0,7.3-2.9c1.1-4.1-1.2-14.4-1.8-17h-0.1c-5,0-9.9-0.8-14.6-2.4c0.2,4-0.5,7-2.2,8.8
		C100.2,194.3,99.2,194.9,98.1,195.2z M111.6,217.9L111.6,217.9z"></path><path class="st0" d="M101.9,193.1c-0.3-3.2-5.4-6-7.4-2.5c-1.5,4,0.6,9.9,4.9,8.4c0,0,0.8,3.1,2.2,3.9"></path><path class="st1" d="M101.6,203.7c-0.1,0-0.3,0-0.4-0.1c-1.2-0.7-1.9-2.6-2.3-3.7c-1.4,0.3-2.8-0.2-3.7-1.2
		c-1.8-1.9-2.4-5.6-1.3-8.4v-0.1c0.8-1.5,2.5-2.3,4.2-1.9c2.3,0.5,4.2,2.3,4.6,4.7c0,0.4-0.3,0.8-0.7,0.8c-0.4,0-0.8-0.2-0.8-0.7
		c0,0,0,0,0,0c-0.4-1.7-1.7-3-3.4-3.4c-1-0.3-2.1,0.2-2.6,1.1c-0.8,2.2-0.4,5.3,1,6.8c0.7,0.8,1.9,1.1,2.9,0.7
		c0.2-0.1,0.4-0.1,0.6,0c0.2,0.1,0.3,0.3,0.4,0.5c0.3,1.1,1,3,1.8,3.5c0.3,0.2,0.4,0.6,0.3,1C102,203.5,101.8,203.7,101.6,203.7z"></path><path class="st1" d="M103.8,204.8c1.1,0.9,4.6,3.4,8.2,3l-0.3,6.9c-4.8-0.7-8.4-4.8-8.3-9.7c0-0.1,0.1-0.3,0.3-0.2
		C103.7,204.8,103.8,204.8,103.8,204.8z"></path><path class="st1" d="M111.8,215.5L111.8,215.5c-5.3-0.7-9.2-5.3-9.1-10.6c0-0.4,0.3-0.7,0.6-0.8c0.3-0.1,0.7-0.1,1,0.1l0,0
		c1,0.8,4.4,3.2,7.7,2.9c0.4,0,0.8,0.3,0.8,0.7c0,0,0,0,0,0.1l-0.3,6.9c0,0.2-0.1,0.4-0.3,0.5C112.1,215.4,111.9,215.5,111.8,215.5z
		 M104.2,206c0.2,1.6,0.8,3.2,1.8,4.5c1.2,1.7,3.1,2.9,5.1,3.3l0.2-5.2C108.7,208.4,106.2,207.5,104.2,206z"></path><path class="st1" d="M49.4,424c-0.6,6.1-9.5-6.8-16-17.1c0.4-1.7,0.1-3.5-0.8-5c-0.8-1.2-2.1-2.1-3.6-2.2c-0.7-1.1-1.2-2.1-1.6-2.8
		c-0.3-0.5-0.1-1.2,0.4-1.5c0,0,0.1,0,0.1-0.1l9.9-4.5c0.5-0.3,1.2,0,1.5,0.5c0,0-1,4-0.5,5.8c1.3,5.5,6.8,5.2,6.8,5.2
		S50.8,410.7,49.4,424z"></path><path class="st1" d="M48.3,426.4c-1.3,0-4.6-1.8-15.4-19.1c-0.1-0.2-0.1-0.3-0.1-0.5c0.3-1.5,0.1-3.1-0.7-4.5
		c-0.7-1.1-1.8-1.8-3-1.9c-0.2,0-0.4-0.2-0.5-0.4l-1.3-2.2l-0.3-0.6c-0.3-0.5-0.3-1-0.2-1.5c0.2-0.5,0.5-0.9,1-1.1l9.9-4.6
		c0.9-0.4,2-0.1,2.4,0.8c0.1,0.2,0.1,0.3,0.1,0.5c-0.3,1.1-0.8,4.1-0.5,5.5c0.7,2.8,3.2,4.7,6,4.6c0.3,0,0.5,0.1,0.7,0.4
		c0.2,0.4,5.3,8.9,4,22.2c-0.1,1.3-0.6,2-1.4,2.2C48.6,426.3,48.4,426.3,48.3,426.4z M34.3,406.7c11.4,18.2,13.9,18.2,14.1,18.1
		c0,0,0.2-0.2,0.3-0.9l0,0c0.8-7.2-0.4-14.4-3.6-20.9c-3.4,0-6.4-2.4-7.1-5.8c-0.4-1.7,0.2-4.7,0.4-5.8c-0.1-0.1-0.2-0.1-0.3,0
		l-9.9,4.5c-0.1,0-0.2,0.1-0.2,0.2c0,0.1,0,0.2,0,0.3l0.3,0.6l1.1,1.9c1.5,0.3,2.9,1.2,3.8,2.5C34.2,403,34.6,404.9,34.3,406.7
		L34.3,406.7z"></path><path class="st1" d="M183,419.4c4.8,3.9-10.9,4.3-23,4c-1.3-1.2-2.9-2-4.7-2c-1.5,0-2.9,0.7-3.9,1.8c-1.3,0-2.4-0.1-3.2-0.1
		c-0.6,0-1.1-0.5-1.1-1.1c0,0,0-0.1,0-0.1l1.5-10.7c0.1-0.6,0.6-1,1.2-1c0,0,2.9,3,4.6,3.6c5.3,1.9,8.1-2.9,8.1-2.9
		S172.6,411.1,183,419.4z"></path><path class="st1" d="M165.2,424.2c-1.6,0-3.4,0-5.3,0c-0.2,0-0.4-0.1-0.5-0.2c-1.1-1.1-2.6-1.8-4.2-1.9c-1.3,0-2.5,0.6-3.3,1.5
		c-0.1,0.2-0.4,0.3-0.6,0.3l-2.5-0.1h-0.7c-1-0.1-1.8-0.9-1.8-2c0-0.1,0-0.1,0-0.2l1.6-10.8c0.1-1,1-1.7,2-1.6
		c0.2,0,0.4,0.1,0.5,0.2c0.8,0.8,3,3,4.3,3.4c2.7,1,5.7-0.1,7.2-2.5c0.1-0.2,0.4-0.4,0.7-0.4c0.4,0,10.3,0.4,20.8,8.8
		c1,0.8,1.4,1.6,1.1,2.4S183.4,424.2,165.2,424.2z M160.2,422.7c21.4,0.4,22.8-1.7,22.9-2c0,0,0-0.3-0.6-0.7l0,0
		c-8.9-7.2-17.6-8.3-19.5-8.4c-1.9,2.8-5.5,4-8.7,2.8c-1.6-0.6-3.8-2.7-4.6-3.5c-0.1,0.1-0.2,0.2-0.2,0.3l-1.6,10.8
		c0,0.1,0,0.2,0.1,0.3c0.1,0.1,0.2,0.1,0.3,0.1h0.7l2.1,0.1c1.1-1.1,2.6-1.7,4.1-1.8C157.1,420.7,158.9,421.4,160.2,422.7
		L160.2,422.7z"></path><path class="st0" d="M114.4,193.1c0.5,1.8,0.9,3.6,1.1,5.4c0,1.3-3.4,0.5-3.4,0.5"></path><path class="st1" d="M114,200c-0.7,0-1.3-0.1-2-0.2c-0.4-0.1-0.7-0.5-0.6-0.9c0.1-0.4,0.5-0.7,0.9-0.6c0.8,0.2,1.7,0.3,2.5,0.1
		c-0.2-1.7-0.6-3.5-1.1-5.1c-0.1-0.4,0.1-0.8,0.5-0.9s0.8,0.1,0.9,0.5c0.5,1.9,0.9,3.8,1.1,5.7c0,0.4-0.2,0.8-0.5,1
		C115.3,199.9,114.6,200,114,200z"></path><ellipse class="st1" transform="matrix(0.9861 -0.1661 0.1661 0.9861 -30.4345 21.0209)" cx="110.5" cy="192.5" rx="1" ry="1.3"></ellipse><ellipse class="st1" transform="matrix(0.9966 -8.211245e-02 8.211245e-02 0.9966 -15.421 10.2749)" cx="117.2" cy="192.6" rx="0.9" ry="1.2"></ellipse><path class="st0" d="M109.6,203.1c0,0,0.8-1.6,2.2-1.6c1.8,0,2.6,2.4,2.6,2.4C115.1,205.4,109.6,204.6,109.6,203.1z"></path><path class="st1" d="M113.2,205.4c-0.9,0-1.7-0.2-2.6-0.5c-1.4-0.6-1.7-1.3-1.7-1.9c0-0.1,0-0.2,0.1-0.3c0.5-1.1,1.6-1.9,2.9-2.1
		l0,0c2.3,0,3.3,2.8,3.3,2.9c0.2,0.5,0.1,1-0.2,1.3C114.4,205.3,113.8,205.5,113.2,205.4z M110.4,203.1c0.3,0.3,0.7,0.4,1.1,0.6
		c0.7,0.2,1.4,0.3,2.1,0.2c-0.2-0.5-0.8-1.7-1.8-1.7l0,0C111.2,202.3,110.7,202.6,110.4,203.1z"></path><path class="st1" d="M123,254.7c-0.4,0-0.7-0.3-0.8-0.7l-1-22.2c0-0.4,0.3-0.8,0.7-0.8c0,0,0,0,0,0c0.4,0,0.8,0.3,0.8,0.7
		c0,0,0,0,0,0l1,22.2C123.8,254.3,123.4,254.7,123,254.7C123,254.7,123,254.7,123,254.7L123,254.7z"></path><path class="st0" d="M185.9,209.7c-2.4,5-6.8,5.1-6.3,2.4S188.3,204.7,185.9,209.7z"></path><path class="st1" d="M181,214.6c-0.3,0-0.6,0-0.8-0.1c-1-0.3-1.7-1.4-1.4-2.5c0.3-2,3.8-4.5,5.9-5.1c1.2-0.3,1.8,0,2.1,0.4
		c0.7,0.9,0,2.3-0.2,2.8l0,0C185,213.2,182.7,214.6,181,214.6z M185.5,208.3c-0.7,0.1-1.4,0.3-2,0.8c-1.7,1-3.1,2.4-3.3,3.2
		s0.2,0.8,0.4,0.8c0.8,0.3,3-0.5,4.6-3.7l0,0C185.4,209.1,185.5,208.7,185.5,208.3L185.5,208.3z"></path><path class="st1" d="M62.5,344.1c-1.1,0-2-0.9-2-2c0-0.7,0.4-1.4,1-1.7c27-15.8,69.7-50.2,120-124.4c18.1-26.6,34.5-54.3,49.1-83
		c0.5-1,1.7-1.4,2.7-0.9c1,0.5,1.4,1.7,0.9,2.7c-14.7,28.8-31.2,56.7-49.4,83.5c-28,41.3-71.8,96.7-121.3,125.7
		C63.2,344,62.8,344.1,62.5,344.1z"></path><path class="st0" d="M136.7,255.3c0,0,15.9-7.1,22.4-3.5s4,14.6,1.5,15.4s-3.8-2.8-6.6-2.5s-14.1,0.8-14.1,0.8"></path><path class="st1" d="M160,268c-1.1-0.1-2.2-0.6-3-1.4c-0.7-0.8-1.7-1.2-2.8-1.2c-2.8,0.2-13.7,0.7-14.2,0.8c-0.4,0-0.8-0.3-0.8-0.7
		s0.3-0.8,0.7-0.8c0.1,0,11.4-0.5,14.1-0.8c1.4,0,2.8,0.5,3.8,1.5c1,0.8,1.7,1.3,2.6,1c0.7-0.2,1.8-2.2,2.1-5.1
		c0.1-1.5,0.4-6.7-3.7-8.9c-6.1-3.3-21.6,3.5-21.8,3.6c-0.4,0.2-0.8,0-1-0.4c0,0,0,0,0,0c-0.2-0.4,0-0.8,0.4-1
		c0.7-0.3,16.3-7.2,23.1-3.5c3.3,1.8,5,5.7,4.5,10.4c-0.3,2.7-1.4,5.9-3.1,6.4C160.6,267.9,160.3,268,160,268z"></path><path class="st3" d="M82.5,217.5c3.1,11.6,5.9,33.3,17.7,36c14.4,1.6,41.9-0.4,41.9-0.4l3.5,15.6c0,0-42.5,11.4-59.5,5.1
		s-22.2-29.8-22.2-29.8s-2-7.7,1.5-18.6c2-6,6.7-9.4,10.4-11.2c2.5-1.1,5.4,0.1,6.4,2.6C82.3,217.1,82.4,217.3,82.5,217.5z"></path><path class="st1" d="M100,276.5c-5.4,0-10.4-0.5-14.2-1.9c-6.9-2.5-12.7-8-17.2-16.3c-0.2-0.4-0.1-0.8,0.3-1c0.4-0.2,0.8-0.1,1,0.3
		l0,0c4.4,8,9.9,13.2,16.4,15.6c15.5,5.6,52.8-3.6,58.4-5l-3.2-14.3c-4.2,0.3-28.3,1.8-41.4,0.4c-8.3-1.9-12.1-12.1-14.5-20.8
		c-0.1-0.4,0.1-0.8,0.5-0.9c0,0,0,0,0,0c0.4-0.1,0.8,0.1,0.9,0.5c2.1,7.6,5.8,18,13.3,19.7c14.1,1.6,41.4-0.4,41.7-0.4
		c0.4,0,0.7,0.2,0.8,0.6l3.5,15.6c0.1,0.4-0.1,0.8-0.5,0.9C144.5,269.8,119.2,276.5,100,276.5z"></path><path class="st0" d="M196.6,206.4c0.1-2.1-6-2.1-7.3,0.1c-1.4,2.5-1.3,8.1,1.1,10c0,0.8,0,1.5-0.1,2.3c0,1.5-2.6,3.1-2.3,3.4
		C189,223.3,195.8,219.5,196.6,206.4z"></path><path class="st1" d="M188.6,223.1c-0.4,0-0.8-0.1-1.1-0.5c-0.6-0.7,0.1-1.3,0.7-1.9s1.4-1.4,1.4-2c0-0.1,0-0.3,0.1-0.6
		s0.1-1,0.1-1.3c-2.4-2.2-2.7-7.9-1.1-10.7c1.1-2,4.9-2.4,6.8-1.8c1.8,0.5,1.9,1.6,1.9,2.1l0,0c-0.6,10.4-5.1,15.6-7.9,16.5
		C189.1,223,188.9,223.1,188.6,223.1z M193.6,205.6c-1.5,0-3.1,0.5-3.6,1.3c-1.3,2.3-1.1,7.4,0.9,9c0.4,0.3,0.4,0.9,0.2,2.4
		c0,0.2,0,0.4-0.1,0.4c-0.1,0.8-0.4,1.6-1,2.1c2.5-1.9,5.3-6.6,5.8-14.6l0,0c0-0.3-0.7-0.5-0.8-0.6
		C194.5,205.6,194.1,205.5,193.6,205.6L193.6,205.6z M190,217L190,217z M196.6,206.3L196.6,206.3z"></path><path class="st0" d="M211.7,169.5c0,0-0.7-16.5-6.7-21.7l9.1-39.6c0,0,31.9,3.2,56.1,23.9l-25.6,31.2
		C244.6,163.2,227.5,159.4,211.7,169.5z"></path><path class="st1" d="M211.7,170.3c-0.1,0-0.2,0-0.4-0.1c-0.2-0.1-0.4-0.4-0.4-0.6c0-0.2-0.8-16.2-6.4-21.2
		c-0.2-0.2-0.3-0.5-0.2-0.7l9.1-39.6c0.1-0.4,0.4-0.6,0.8-0.6c0.3,0,32.4,3.4,56.5,24c0.3,0.3,0.3,0.7,0.1,1l-25.6,31.2
		c-0.2,0.2-0.5,0.3-0.7,0.2c-0.2,0-17.1-3.7-32.4,6.2C212,170.2,211.8,170.3,211.7,170.3z M205.8,147.5c4.9,4.8,6.2,16.7,6.5,20.7
		c14.1-8.5,29.2-6.3,32-5.8l24.8-30.3c-21.8-18.3-49.9-22.5-54.5-23.1L205.8,147.5z"></path><line class="st4" x1="259.4" y1="130.6" x2="239.7" y2="154.4"></line><path class="st1" d="M239.7,155.2c-0.2,0-0.3-0.1-0.5-0.2c-0.3-0.3-0.4-0.7-0.1-1c0,0,0,0,0,0l19.6-23.9c0.3-0.3,0.7-0.3,1.1-0.1
		c0.3,0.3,0.3,0.7,0.1,1l-19.6,23.9C240.2,155.1,240,155.2,239.7,155.2z"></path><line class="st4" x1="247.8" y1="125" x2="225.7" y2="159"></line><path class="st1" d="M225.7,159.8c-0.1,0-0.3,0-0.4-0.1c-0.3-0.2-0.4-0.7-0.2-1l22.1-34c0.2-0.3,0.7-0.4,1-0.2
		c0.3,0.2,0.4,0.6,0.2,1l-22.1,34C226.2,159.6,226,159.8,225.7,159.8z"></path><line class="st4" x1="234.8" y1="120.4" x2="220.4" y2="153"></line><path class="st1" d="M220.4,153.8c-0.1,0-0.2,0-0.3-0.1c-0.4-0.2-0.5-0.6-0.4-1l14.4-32.6c0.2-0.4,0.6-0.5,1-0.4
		c0.4,0.2,0.6,0.6,0.4,1c0,0,0,0,0,0l-14.4,32.6C221,153.6,220.7,153.8,220.4,153.8z"></path><line class="st4" x1="222.6" y1="115.9" x2="214.8" y2="142.5"></line><path class="st1" d="M214.8,143.3h-0.2c-0.4-0.1-0.6-0.5-0.5-0.9l7.7-26.7c0.1-0.4,0.5-0.6,0.9-0.5c0.4,0.1,0.6,0.5,0.5,0.9
		l-7.7,26.7C215.5,143.1,215.2,143.3,214.8,143.3z"></path><path class="st1" d="M247.4,137.3c-0.2,0-0.3-0.1-0.5-0.2c-8.5-7.1-30.6-11.4-30.9-11.4c-0.4,0-0.7-0.4-0.7-0.8
		c0-0.4,0.4-0.7,0.8-0.7c0,0,0.1,0,0.1,0c0.9,0.2,22.7,4.3,31.6,11.7c0.3,0.3,0.3,0.7,0.1,1C247.9,137.2,247.7,137.3,247.4,137.3z"></path><path class="st1" d="M245,154.5c-0.2,0-0.4-0.1-0.5-0.2c-9.1-8-23.5-11.4-24.4-11.4c-0.4,0-0.7-0.4-0.7-0.8c0-0.4,0.3-0.7,0.7-0.7
		c0,0,0,0,0,0c1.5,0,16.2,3.6,25.4,11.8c0.3,0.3,0.3,0.7,0.1,1.1C245.4,154.4,245.2,154.5,245,154.5L245,154.5z"></path></g><g id="lines"><path class="st1" d="M199.2,160.3c-0.3,0-0.6-0.2-0.7-0.4c-1.6-3.5-9.1-4.3-11.9-4.3c-0.4,0-0.7-0.3-0.8-0.7c0-0.4,0.2-0.7,0.6-0.8
		c1.9-0.3,6.9-1.4,7.9-3.4c0.2-0.4,0.2-0.9-0.1-1.4c-1.4-2.8-14.9-5.1-23.1-5.9c-0.4,0-0.7-0.4-0.7-0.8c0-0.3,0.3-0.6,0.6-0.7
		c15.7-3,28.6-6.9,28.9-8.6c-0.3-2.3-7.3-5.4-11.6-6.7c-0.4-0.1-0.6-0.6-0.5-1c0.1-0.3,0.4-0.5,0.6-0.5c8.9-0.5,12.4-6.2,12.5-6.5
		c0.2-0.3,0.6-0.4,1-0.3c0.3,0.2,0.5,0.6,0.3,1c-0.1,0.2-3.2,5.3-10.6,6.8c3.6,1.4,9.2,4,9.6,6.9c0.1,1,0.4,3-15.1,6.9
		c-3.8,1-7.6,1.8-10.4,2.4c6.6,0.9,18,2.9,19.6,6.2c0.5,0.8,0.5,1.9,0,2.7c-0.7,1.4-2.7,2.4-4.6,3.1c3.3,0.5,7.4,1.8,8.8,4.8
		c0.2,0.4,0,0.8-0.4,1C199.4,160.2,199.3,160.3,199.2,160.3z"></path><path class="st1" d="M293.2,132.7c-0.3,0-0.6-0.2-0.7-0.6c-0.1-0.3-1.5-6,2.7-12.3c-3.6,1.6-9.4,3.7-11.7,1.9
		c-0.8-0.6-2.4-1.8,5.8-15.6c2-3.3,4.1-6.6,5.6-9.1c-5.3,4.1-14.7,10.7-18.2,9.5c-0.9-0.3-1.7-1-2-1.9c-0.5-1.5,0.2-3.6,1.1-5.4
		c-2.7,2-6.5,4-9.6,2.8c-0.4-0.1-0.6-0.6-0.4-1c0,0,0,0,0,0c0.1-0.4,0.6-0.6,1-0.4c0,0,0,0,0,0c3.6,1.4,9.5-3.4,11.5-5.4
		c0.3-0.3,0.8-0.3,1.1-0.1s0.3,0.8,0.1,1.1c-1.1,1.5-3.9,5.9-3.2,8c0.2,0.5,0.5,0.8,1,0.9c3,1,14.1-6.9,20.5-12.1
		c0.3-0.3,0.8-0.3,1,0c0.3,0.3,0.3,0.7,0,1c-8.9,13.2-15.3,25.1-14.3,26.5c1.9,1.4,9-1.3,13-3.4c0.4-0.2,0.8,0,1,0.3
		c0.1,0.3,0.1,0.6-0.1,0.8c-6,6.7-4.3,13.4-4.3,13.4c0.1,0.4-0.1,0.8-0.5,0.9c0,0,0,0,0,0C293.4,132.7,293.3,132.7,293.2,132.7z"></path><path class="st1" d="M269.1,204.9c-0.3,0-0.5-0.1-0.6-0.4c-8.1-13.7-16.2-24.6-17.9-24.2c-2.1,1.1-2.6,8.7-2.4,13.2
		c0,0.4-0.2,0.7-0.6,0.8c-0.4,0.1-0.7-0.1-0.9-0.4c-3.5-8.2-10-9.6-10.3-9.6c-0.4-0.1-0.6-0.5-0.5-0.9c0.1-0.4,0.4-0.6,0.8-0.5
		c0.3,0.1,6,1.2,10,7.7c0.1-3.9,0.7-10.1,3.2-11.4c0.9-0.5,2.6-1.4,11.6,11.9c2.2,3.2,4.3,6.5,5.8,9c-1.4-6.6-3.4-17.9-0.8-20.6
		c0.6-0.7,1.6-1.1,2.5-1c1.6,0.2,3.2,1.7,4.4,3.3c-0.6-3.3-0.8-7.6,1.5-9.9c0.2-0.3,0.7-0.4,1-0.2c0.3,0.2,0.4,0.7,0.2,1
		c-0.1,0.1-0.1,0.1-0.2,0.2c-2.8,2.7-0.9,10.1,0,12.7c0.1,0.4-0.1,0.8-0.5,0.9c-0.3,0.1-0.7,0-0.9-0.3c-0.9-1.7-3.7-6-5.8-6.3
		c-0.5-0.1-1,0.1-1.3,0.5c-2.2,2.3,0.2,15.7,2.2,23.7c0.1,0.4-0.2,0.8-0.6,0.9C269.2,204.9,269.2,204.9,269.1,204.9L269.1,204.9z"></path></g></svg>